HIERARCHY
ROOT reference
{
	OFFSET 0.000000 0.000000 0.000000
	CHANNELS 6 Xposition Yposition Zposition Xrotation Yrotation Zrotation
	JOINT root
	{
		OFFSET 0.000000 88.868896 0.000000
		CHANNELS 3 Xrotation Yrotation Zrotation
		JOINT Hips
		{
			OFFSET 0.000000 0.000000 0.000000
			CHANNELS 3 Xrotation Yrotation Zrotation
			JOINT Spine
			{
				OFFSET -0.009988 -0.106941 0.015310
				CHANNELS 3 Xrotation Yrotation Zrotation
				JOINT Spine1
				{
					OFFSET 4.533400 17.417198 -4.537591
					CHANNELS 3 Xrotation Yrotation Zrotation
					JOINT Spine2
					{
						OFFSET 6.299707 16.696503 -5.110763
						CHANNELS 3 Xrotation Yrotation Zrotation
						JOINT Neck
						{
							OFFSET 8.425187 14.455307 -8.035752
							CHANNELS 3 Xrotation Yrotation Zrotation
							JOINT Head
							{
								OFFSET 6.640421 7.678009 -5.472109
								CHANNELS 3 Xrotation Yrotation Zrotation
								End Site
								{
									OFFSET 0.000000 0.100006 0.000000
								}
							}
						}
						JOINT RightShoulder
						{
							OFFSET 11.527896 13.589600 -6.335631
							CHANNELS 3 Xrotation Yrotation Zrotation
							JOINT RightArm
							{
								OFFSET 13.486506 -6.124649 6.261806
								CHANNELS 3 Xrotation Yrotation Zrotation
								JOINT RightForeArm
								{
									OFFSET 25.617397 -13.984001 -3.586366
									CHANNELS 3 Xrotation Yrotation Zrotation
									JOINT RightHand
									{
										OFFSET 19.265198 -2.197998 -15.665903
										CHANNELS 3 Xrotation Yrotation Zrotation
										End Site
										{
											OFFSET 0.000000 0.099998 0.000000
										}
									}
								}
							}
						}
						JOINT LeftShoulder
						{
							OFFSET 5.329936 15.307495 -9.745831
							CHANNELS 3 Xrotation Yrotation Zrotation
							JOINT LeftArm
							{
								OFFSET -14.242400 3.334656 -6.681284
								CHANNELS 3 Xrotation Yrotation Zrotation
								JOINT LeftForeArm
								{
									OFFSET -24.947895 -13.225693 8.206516
									CHANNELS 3 Xrotation Yrotation Zrotation
									JOINT LeftHand
									{
										OFFSET 7.316577 -17.996201 -15.620707
										CHANNELS 3 Xrotation Yrotation Zrotation
										End Site
										{
											OFFSET 0.000000 0.099998 0.000000
										}
									}
								}
							}
						}
					}
				}
			}
			JOINT RightUpLeg
			{
				OFFSET 8.306290 -0.432343 4.709320
				CHANNELS 3 Xrotation Yrotation Zrotation
				JOINT RightLeg
				{
					OFFSET 15.384899 -41.196602 -9.661634
					CHANNELS 3 Xrotation Yrotation Zrotation
					JOINT RightFoot
					{
						OFFSET -10.215700 -39.390301 6.294163
						CHANNELS 3 Xrotation Yrotation Zrotation
						JOINT RightToe
						{
							OFFSET 14.703199 -6.879600 -7.786213
							CHANNELS 3 Xrotation Yrotation Zrotation
							End Site
							{
								OFFSET 0.000000 0.100000 0.000000
							}
						}
					}
				}
			}
			JOINT LeftUpLeg
			{
				OFFSET -8.306280 0.432343 -4.709320
				CHANNELS 3 Xrotation Yrotation Zrotation
				JOINT LeftLeg
				{
					OFFSET -16.008406 -39.629002 -14.158993
					CHANNELS 3 Xrotation Yrotation Zrotation
					JOINT LeftFoot
					{
						OFFSET -17.318695 -36.545601 7.749593
						CHANNELS 3 Xrotation Yrotation Zrotation
						JOINT LeftToe
						{
							OFFSET -4.093060 -12.818400 -11.961398
							CHANNELS 3 Xrotation Yrotation Zrotation
							End Site
							{
								OFFSET 0.000000 0.100000 0.000000
							}
						}
					}
				}
			}
		}
	}
}
MOTION
Frames: 16
Frame Time: 0.041667
42.203300 0.000000 -8.949345 -0.000000 0.000000 -0.000000 -0.272688 -3.077451 0.248871 -0.402002 0.173326 0.723843 0.823254 0.465157 -0.100208 1.283680 0.684703 -0.292826 0.920093 0.327736 -0.255791 -0.321429 0.272054 0.182756 -0.729321 0.437249 0.005592 -0.493940 -0.379827 0.884112 -1.577945 0.537393 -1.203297 0.211888 0.334670 0.213787 0.025767 0.059816 0.105081 -0.371748 -0.079960 0.671880 -1.966008 0.144385 0.206223 -0.118552 0.110679 -0.182767 0.156715 -0.147843 -0.121642 -2.745771 3.696639 -6.233558 -12.657675 2.347149 -20.595467 5.181243 7.112482 -31.389531 6.191163 2.670045 48.180629 -4.323838 13.398696 33.082363 -0.616373 0.276516 -0.074254 30.286176 -19.909300 3.410510 -22.554330 2.723553 -18.917985 
44.645302 0.000000 -9.364916 -0.000000 0.000000 -0.000000 -0.170642 -3.459135 0.172625 -0.396441 0.170722 0.713838 0.753779 0.512447 -0.179498 1.193885 0.749068 -0.405906 0.862861 0.371791 -0.335731 -0.175017 0.176130 0.196717 -0.471535 0.305490 0.141911 -0.404458 -0.297168 0.736606 -1.036411 0.201878 -0.668902 0.327914 0.519109 0.330871 -0.273612 0.103973 0.341414 -0.390003 -0.202181 0.637806 -2.115011 -0.153370 0.143785 0.119934 -0.111236 0.184569 0.162332 -0.255657 -0.184434 -2.079914 3.571742 -1.446698 -15.524135 3.573659 -25.447931 5.583805 10.109642 -34.988689 2.079589 -2.172910 39.380050 -4.439701 13.525537 32.253676 -1.130873 0.508043 -0.133976 30.970806 -20.243902 2.911009 -22.634089 2.769771 -19.240165 
48.963596 0.000000 -10.014817 -0.000000 0.000000 -0.000000 -0.041007 -3.989497 0.369285 -0.360657 0.155769 0.649524 0.728661 0.490460 -0.381508 1.140696 0.675758 -0.674493 0.815216 0.310300 -0.512136 -0.142859 0.235638 0.214381 -0.449294 0.420068 0.178925 -0.283301 -0.067049 0.640315 -0.658670 -0.225749 -0.416725 0.681674 1.086619 0.687889 -0.620368 0.170125 0.543568 -0.385409 -0.023223 0.730244 -2.232715 -0.465735 -0.195879 0.005881 -0.005474 0.009072 0.090822 -0.063635 -0.076471 -1.216359 2.608272 6.059543 -17.032668 4.337808 -28.052996 1.032980 0.672958 -24.377652 7.963641 1.875764 18.689742 -5.615151 14.703287 30.515178 -0.544390 0.244179 -0.065728 31.677208 -21.498543 2.382623 -22.490182 2.768357 -20.247578 
51.134396 0.000000 -10.429717 -0.000000 0.000000 -0.000000 -0.011926 -4.033374 0.488542 -0.342850 0.147979 0.617488 0.706033 0.438886 -0.464669 1.092577 0.588422 -0.778292 0.773154 0.249301 -0.576232 -0.099777 0.259874 0.263012 -0.415913 0.480334 0.285383 -0.296482 -0.043816 0.693074 -0.699305 -0.088624 -0.370561 0.643436 1.024917 0.649310 -0.549680 0.161193 0.459778 -0.372497 0.030930 0.736015 -2.095241 -0.282599 -0.385084 -0.148343 0.138580 -0.228737 0.053515 0.063362 -0.012863 -1.133372 2.018666 9.329143 -15.818523 3.716145 -25.953254 1.438538 0.100797 -22.025079 7.702230 1.891668 14.596601 -5.941177 14.979792 29.538717 -0.330589 0.148186 -0.040184 31.800428 -22.098968 2.017390 -21.842347 2.610254 -21.180852 
53.216297 0.000000 -10.806218 -0.000000 0.000000 -0.000000 -0.005005 -4.014890 0.570578 -0.325024 0.140606 0.585447 0.672652 0.425493 -0.574284 1.036390 0.552193 -0.923717 0.729229 0.220657 -0.671770 -0.019328 0.210118 0.380145 -0.347393 0.423748 0.548401 -0.193490 0.076314 0.545558 -1.067400 -0.124228 0.210019 0.508648 0.808087 0.513269 -0.373325 0.140611 0.304226 -0.392730 0.080794 0.803007 -1.884820 -0.142136 -0.398720 -0.292422 0.274246 -0.451365 0.019189 0.143431 0.032867 -1.149702 1.514265 11.829154 -13.301717 2.598048 -21.676114 2.574661 0.547169 -20.973549 5.867023 1.278520 11.547203 -6.130741 15.204930 28.546656 -0.231254 0.103651 -0.028194 32.071160 -22.483784 2.073474 -21.837006 2.694595 -20.257506 
55.276695 0.000000 -11.183018 -0.000000 0.000000 -0.000000 -0.004264 -3.949591 0.544587 -0.307276 0.132911 0.553521 0.633025 0.425716 -0.641718 0.976328 0.541569 -1.012599 0.686070 0.213146 -0.730654 0.047402 0.155104 0.461976 -0.276530 0.350595 0.742928 -0.085198 0.176778 0.367877 -1.404268 -0.311231 0.753899 0.402458 0.638077 0.406113 -0.228522 0.113221 0.169405 -0.398783 0.129249 0.842072 -1.717943 -0.069268 -0.439987 -0.347511 0.326396 -0.536637 -0.005655 0.172131 0.059392 -1.482895 1.169276 13.369913 -9.545637 1.325187 -15.437829 3.121477 0.776298 -20.435801 2.382572 0.406618 6.792992 -6.272811 15.453506 27.602137 -0.162832 0.072966 -0.019903 32.366361 -22.754526 2.432216 -22.028024 2.820297 -19.146800 
57.319096 0.000000 -11.599821 -0.000000 0.000000 -0.000000 0.009985 -3.827290 0.393684 -0.289559 0.125391 0.521656 0.585318 0.432152 -0.650954 0.909171 0.548823 -1.021749 0.641215 0.223297 -0.736724 0.084031 0.107033 0.490963 -0.222045 0.276733 0.826324 0.005793 0.233918 0.194117 -1.600992 -0.651230 1.132312 0.359548 0.569555 0.362805 -0.157938 0.082184 0.086638 -0.383931 0.168759 0.836118 -1.603495 -0.078102 -0.551841 -0.310586 0.291435 -0.479507 -0.024568 0.172499 0.080356 -2.137296 0.902652 13.874722 -4.658583 0.318743 -7.490000 2.791692 0.939534 -19.987343 -1.711139 -0.073908 0.971053 -6.399532 15.715524 26.714256 -0.115727 0.051844 -0.014167 32.670700 -22.941636 3.032191 -22.351996 2.942910 -18.622270 
59.420696 0.000000 -12.103121 -0.000000 0.000000 -0.000000 0.090051 -3.596760 0.129928 -0.271900 0.117823 0.489877 0.512768 0.439103 -0.605602 0.810568 0.569213 -0.954908 0.577768 0.249806 -0.691935 0.083454 0.053065 0.497813 -0.213016 0.179427 0.850955 0.088483 0.251250 0.004844 -1.582665 -1.133181 1.364520 0.374939 0.594116 0.378325 -0.160633 0.043409 0.061762 -0.363296 0.156727 0.789816 -1.440447 -0.171921 -0.719667 -0.253144 0.237162 -0.390626 -0.061953 0.260116 0.165291 -3.758724 1.802541 13.514376 1.075472 0.013053 1.726030 3.140849 1.258963 -19.691391 -2.003068 -0.078384 0.678102 -6.514879 15.894909 25.853639 -0.137695 0.061683 -0.016834 32.983540 -23.110828 3.693400 -22.961166 3.063925 -20.628331 
61.559196 0.000000 -12.621922 -0.000000 0.000000 -0.000000 0.255727 -3.155977 -0.219102 -0.254305 0.110199 0.458207 0.457870 0.404173 -0.516196 0.729307 0.534352 -0.822013 0.522652 0.241953 -0.598928 0.021759 -0.012164 0.502555 -0.300221 0.044631 0.838966 0.138235 0.252477 -0.117552 -1.652177 -1.644826 1.485648 0.419438 0.665202 0.423242 -0.185376 0.024046 0.048123 -0.350751 0.148699 0.761174 -1.293574 -0.239372 -0.915179 -0.216592 0.202706 -0.334150 -0.095989 0.318238 0.216571 -5.871998 2.446273 13.030144 6.283270 0.538083 10.113970 3.429189 1.199054 -18.862430 -1.867152 -0.082086 1.059519 -6.675958 15.849013 24.967125 -0.248968 0.111579 -0.030347 33.408593 -23.200184 4.491391 -23.293042 3.148765 -21.899482 
63.594097 0.000000 -13.141422 -0.000000 0.000000 -0.000000 0.484201 -2.555571 -0.619146 -0.236744 0.102762 0.426604 0.422734 0.341190 -0.395322 0.670582 0.460930 -0.642450 0.480230 0.209229 -0.472000 -0.071656 -0.088364 0.515317 -0.441275 -0.117139 0.825321 0.159383 0.249260 -0.173114 -1.817762 -2.166792 1.536281 0.478510 0.759751 0.482844 -0.223874 0.027708 0.043050 -0.344058 0.149111 0.748523 -1.138253 -0.249713 -1.112243 -0.215067 0.201286 -0.331777 -0.123327 0.336281 0.227211 -7.634637 2.023860 12.578342 10.168800 1.443723 16.454359 3.596507 1.233875 -17.472321 -1.940810 -0.086030 1.101272 -6.844116 15.781996 24.019754 -0.436020 0.195528 -0.052826 33.896614 -23.327618 5.492835 -23.304110 3.182115 -21.986977 
67.704201 0.000000 -13.741723 -0.000000 0.000000 -0.000000 0.734824 -1.736145 -1.222531 -0.164045 0.071491 0.295703 0.323039 0.398447 -0.155194 0.545532 0.549394 -0.303367 0.410127 0.301395 -0.247198 0.003617 -0.238011 0.582941 -0.310835 -0.348417 1.021949 0.211876 0.263916 -0.290682 -1.605556 -3.253937 1.705728 0.556135 0.884330 0.561201 -0.384109 0.047531 0.149207 -0.294228 0.087150 0.617973 -0.430119 -0.093725 -1.401562 -0.281541 0.263996 -0.434576 -0.165513 0.423608 0.302908 -6.837345 -1.340783 11.849885 12.153075 2.085554 19.739518 3.442684 1.257844 -16.714576 -2.077583 -0.093513 1.178792 -6.577345 15.959741 21.611477 -0.784478 0.352111 -0.093984 34.637132 -23.333863 7.496490 -23.425865 3.261902 -22.494840 
69.715401 0.000000 -14.076425 -0.000000 0.000000 -0.000000 0.747799 -1.517335 -1.433443 -0.118563 0.051786 0.213764 0.263333 0.448885 -0.033543 0.472686 0.620377 -0.132710 0.370487 0.366475 -0.135746 0.070607 -0.261344 0.580323 -0.185973 -0.365245 1.062408 0.205299 0.234131 -0.301189 -1.212812 -3.472926 1.658568 0.529787 0.842008 0.534600 -0.438742 0.031332 0.205395 -0.291523 0.059152 0.596781 0.002604 0.113141 -1.601468 -0.299576 0.281018 -0.462464 -0.149064 0.439908 0.319212 -5.658337 -2.892499 11.452176 11.304107 1.795600 18.329207 1.521512 1.440663 -18.803007 -2.140049 -0.096988 1.214203 -6.295751 16.029995 20.205043 -0.723663 0.324752 -0.086864 34.700537 -23.224737 8.163615 -23.481301 3.298712 -22.726759 
71.656197 0.000000 -14.323926 -0.000000 0.000000 -0.000000 0.783692 -1.477835 -1.527568 -0.136796 0.059608 0.246617 0.172293 0.451302 -0.000397 0.353045 0.657066 -0.087472 0.293803 0.404570 -0.106568 0.106317 -0.199795 0.582653 -0.141760 -0.241444 1.074217 0.272391 0.299122 -0.409993 -0.804373 -3.345383 1.704172 0.428325 0.679397 0.432187 -0.396063 0.014840 0.200684 -0.305809 0.097054 0.645751 0.454392 0.561215 -1.534815 -0.390780 0.367495 -0.603666 -0.104092 0.322930 0.227984 -4.740130 -2.680916 11.799083 9.597205 1.281844 15.514782 0.684716 1.630019 -19.305864 -2.198144 -0.100254 1.247134 -6.300884 16.003936 18.605929 0.174414 -0.078064 0.021536 34.198658 -22.956244 8.304798 -23.532650 3.333135 -22.942530 
73.588303 0.000000 -14.562626 -0.000000 0.000000 -0.000000 0.799305 -1.088517 -1.439011 -0.118479 0.051676 0.213605 0.118445 0.330927 -0.007476 0.250641 0.492980 -0.076648 0.210625 0.304073 -0.087315 0.045501 -0.123948 0.517629 -0.219429 -0.131900 0.916852 0.276990 0.293058 -0.426937 -0.742548 -2.885171 1.615972 0.324717 0.514019 0.327641 -0.269364 -0.001519 0.091165 -0.272857 0.162925 0.620061 0.535457 0.846659 -1.243630 -0.509601 0.480782 -0.787918 -0.105472 0.273758 0.182522 -4.064507 -3.043762 11.692921 8.050612 0.893900 12.985411 0.492209 1.394190 -19.969907 -2.251607 -0.103285 1.277422 -6.505215 15.879655 16.843591 1.617046 -0.720680 0.208649 33.277317 -22.490001 8.587972 -23.579864 3.364990 -23.140925 
75.516899 0.000000 -14.795926 -0.000000 0.000000 -0.000000 0.763509 -0.396212 -1.208299 -0.057937 0.025355 0.104480 0.113928 0.128173 -0.028909 0.190804 0.180847 -0.069961 0.143152 0.100120 -0.061352 -0.082905 -0.058328 0.397623 -0.371419 -0.068908 0.632631 0.210847 0.201897 -0.344153 -1.022001 -2.248256 1.368920 0.260768 0.412273 0.263122 -0.106338 -0.013583 -0.089428 -0.194220 0.233233 0.509138 0.205724 0.845949 -0.845365 -0.594396 0.562042 -0.919571 -0.155015 0.289267 0.188836 -3.530031 -4.392947 10.917572 6.935353 0.658645 11.171363 0.715687 1.165025 -20.729933 -2.300156 -0.107158 1.304932 -6.933159 15.746492 14.983391 3.665543 -1.622812 0.501454 31.912184 -21.811231 9.030290 -23.622547 3.394067 -23.321128 
77.447403 0.000000 -15.027027 -0.000000 0.000000 -0.000000 0.553556 -0.120749 -1.026803 -0.011942 0.005277 0.021543 0.148995 0.095421 -0.001971 0.225744 0.105458 -0.021686 0.161065 0.049555 -0.023964 -0.093579 -0.037879 0.328753 -0.348662 -0.041559 0.505126 0.180633 0.148183 -0.317147 -1.283565 -2.113379 1.006108 0.356229 0.564252 0.359448 -0.128302 0.005042 -0.132969 -0.139709 0.269025 0.424689 -0.327108 0.402393 -0.817981 -0.425840 0.400840 -0.657980 -0.179898 0.120077 0.098289 -2.730899 -4.701045 10.193354 5.593721 0.424084 8.998204 0.757921 1.484235 -19.640609 -2.343568 -0.111127 1.329535 -7.740520 15.994167 13.244987 6.834286 -2.991095 1.015807 29.864971 -20.900877 9.100825 -23.660704 3.420169 -23.482344 
